HIERARCHY
ROOT Joint1
{
	OFFSET 0.000000 0.000000 0.000000
	CHANNELS 6 Xposition Yposition Zposition Xrotation Yrotation Zrotation
	JOINT Joint2
	{
		OFFSET -0.000000 0.000000 1.456275
		CHANNELS 6 Xposition Yposition Zposition Xrotation Yrotation Zrotation
		JOINT Joint3
		{
			OFFSET -0.000000 0.000002 1.471446
			CHANNELS 6 Xposition Yposition Zposition Xrotation Yrotation Zrotation
			JOINT Joint4
			{
				OFFSET 0.625745 0.000000 0.917755
				CHANNELS 6 Xposition Yposition Zposition Xrotation Yrotation Zrotation
				JOINT Joint5
				{
					OFFSET -0.629534 0.000001 0.940221
					CHANNELS 6 Xposition Yposition Zposition Xrotation Yrotation Zrotation
					JOINT Joint6
					{
						OFFSET -0.000001 0.113772 1.960660
						CHANNELS 6 Xposition Yposition Zposition Xrotation Yrotation Zrotation
						JOINT Joint7
						{
							OFFSET -0.669733 -0.113771 0.388340
							CHANNELS 6 Xposition Yposition Zposition Xrotation Yrotation Zrotation
							End Site
							{
								OFFSET 0.005509 0.005509 0.438980
							}
						}
					}
				}
			}
		}
	}
}
MOTION
Frames: 22
Frame Time: 0.041667
0.000000 0.000000 0.000000 -0.000000 1.019410 156.203312 -0.000000 0.000000 1.456275 0.000000 22.364256 -0.000000 -0.000000 0.000002 1.471445 -0.000006 -1.133458 119.682277 0.625745 0.000000 0.917755 -0.000003 71.301069 0.000002 -0.629533 0.000001 0.940221 -0.000001 1.709737 126.551890 -0.000001 0.113773 1.960660 -88.303882 -145.309461 -0.000000 -0.669733 -0.113771 0.388340 -0.173139 1.683177 -13.439943 
0.000000 0.000000 0.000000 -0.000000 1.019410 156.005400 -0.000000 -0.000000 1.456275 -0.000000 22.278931 0.000001 -0.000000 0.000002 1.471446 -0.000008 -1.133456 119.530605 0.625745 0.000000 0.917755 -0.000002 71.381802 0.000004 -0.629533 0.000001 0.940222 -0.000002 1.709736 126.391558 -0.000001 0.113772 1.960661 -88.303875 -145.467470 -0.000001 -0.669733 -0.113770 0.388340 -0.170302 1.684927 -13.252068 
0.000000 0.000000 0.000000 -0.000000 1.019410 155.687428 -0.000000 0.000000 1.456275 0.000000 22.141853 0.000000 -0.000000 0.000002 1.471446 -0.000008 -1.133457 119.286945 0.625745 0.000000 0.917755 -0.000004 71.511493 0.000003 -0.629533 0.000001 0.940221 -0.000002 1.709737 126.133937 -0.000001 0.113772 1.960661 -88.303875 -145.721321 0.000000 -0.669733 -0.113771 0.388340 -0.165746 1.687760 -12.950224 
0.000000 0.000000 0.000000 -0.000000 1.019410 155.259147 -0.000000 0.000000 1.456275 -0.000001 21.957207 -0.000002 -0.000000 0.000002 1.471446 -0.000009 -1.133453 118.958700 0.625745 0.000000 0.917755 -0.000004 71.686196 0.000004 -0.629533 0.000001 0.940221 -0.000001 1.709739 125.786922 -0.000001 0.113772 1.960660 -88.303875 -146.063295 -0.000000 -0.669733 -0.113771 0.388340 -0.159638 1.691615 -12.543633 
0.000000 0.000000 0.000000 -0.000000 1.019410 154.730231 -0.000000 -0.000000 1.456275 0.000000 21.729185 0.000002 -0.000000 0.000002 1.471446 -0.000008 -1.133456 118.553397 0.625745 0.000000 0.917755 -0.000003 71.901927 0.000003 -0.629533 0.000001 0.940221 -0.000002 1.709737 125.358396 -0.000001 0.113772 1.960660 -88.303875 -146.485592 -0.000000 -0.669733 -0.113771 0.388339 -0.152138 1.696430 -12.041530 
0.000000 0.000000 0.000000 -0.000000 1.019410 154.110433 -0.000000 -0.000000 1.456275 -0.000000 21.461981 0.000002 -0.000000 0.000002 1.471445 -0.000008 -1.133456 118.078398 0.625745 0.000000 0.917755 0.000004 72.154747 0.000005 -0.629533 0.000001 0.940221 -0.000001 1.709737 124.856254 -0.000001 0.113772 1.960661 -88.303875 -146.980453 -0.000003 -0.669733 -0.113771 0.388340 -0.143398 1.702158 -11.453142 
0.000000 0.000000 0.000000 -0.000000 1.019410 153.409450 -0.000000 0.000000 1.456275 0.000001 21.159777 -0.000000 -0.000000 0.000002 1.471446 -0.000007 -1.133454 117.541231 0.625745 0.000000 0.917755 -0.000007 72.440658 0.000004 -0.629534 0.000001 0.940221 -0.000002 1.709737 124.288324 -0.000001 0.113772 1.960661 -88.303882 -147.540091 -0.000001 -0.669733 -0.113771 0.388340 -0.133584 1.708743 -10.787696 
0.000000 0.000000 0.000000 -0.000000 1.019410 152.637024 -0.000000 -0.000000 1.456275 -0.000001 20.826777 0.000001 -0.000000 0.000002 1.471446 -0.000008 -1.133457 116.949286 0.625745 0.000000 0.917755 -0.000004 72.755721 0.000003 -0.629534 0.000001 0.940221 -0.000002 1.709735 123.662515 -0.000001 0.113772 1.960660 -88.303882 -148.156802 -0.000003 -0.669733 -0.113771 0.388340 -0.122859 1.716133 -10.054421 
0.000000 0.000000 0.000000 -0.000000 1.019410 151.802484 -0.000000 -0.000000 1.456275 -0.000001 20.467002 -0.000002 -0.000000 0.000002 1.471446 -0.000008 -1.133455 116.309734 0.625745 0.000000 0.917755 -0.000008 73.096118 0.000002 -0.629533 0.000001 0.940221 -0.000001 1.709737 122.986381 -0.000001 0.113772 1.960661 -88.303875 -148.823128 -0.000000 -0.669733 -0.113772 0.388340 -0.111378 1.724270 -9.262183 
0.000000 0.000000 0.000000 -0.000000 1.019410 150.913617 -0.000000 0.000000 1.456275 0.000000 20.083802 -0.000002 -0.000000 0.000002 1.471445 -0.000008 -1.133454 115.628587 0.625745 0.000000 0.917755 -0.000004 73.458671 0.000005 -0.629534 0.000001 0.940221 -0.000001 1.709738 122.266233 -0.000001 0.113771 1.960661 -88.303875 -149.532771 0.000001 -0.669733 -0.113771 0.388342 -0.099277 1.733111 -8.418376 
0.000000 0.000000 0.000000 -0.000000 1.019410 149.977868 -0.000000 -0.000000 1.456275 -0.000000 19.680376 0.000000 -0.000000 0.000002 1.471446 -0.000010 -1.133452 114.911471 0.625745 0.000000 0.917755 0.000000 73.840355 0.000004 -0.629534 0.000001 0.940221 -0.000001 1.709735 121.508095 -0.000001 0.113772 1.960660 -88.303882 -150.279885 0.000001 -0.669733 -0.113770 0.388340 -0.086679 1.742607 -7.530035 
0.000000 0.000000 0.000000 -0.000000 1.019410 149.002598 -0.000000 0.000000 1.456275 0.000000 19.259928 0.000001 -0.000001 0.000002 1.471446 -0.000008 -1.133456 114.164092 0.625745 0.000000 0.917755 0.000004 74.238153 0.000005 -0.629534 0.000001 0.940221 -0.000001 1.709737 120.717938 -0.000001 0.113772 1.960661 -88.303882 -151.058540 0.000002 -0.669733 -0.113771 0.388340 -0.073709 1.752714 -6.604191 
0.000000 0.000000 0.000000 -0.000000 1.019410 147.975038 -0.000000 -0.000000 1.456275 -0.000001 18.816929 0.000000 -0.000000 0.000002 1.471446 -0.000007 -1.133455 113.376625 0.625745 0.000000 0.917755 -0.000004 74.657280 0.000003 -0.629534 0.000001 0.940221 -0.000000 1.709738 119.885420 -0.000001 0.113772 1.960660 -88.303882 -151.878955 0.000001 -0.669734 -0.113771 0.388339 -0.060220 1.763585 -5.628691 
0.000000 0.000000 0.000000 -0.000000 1.019410 146.801515 -0.000000 0.000000 1.456275 0.000001 18.311010 0.000003 -0.000000 0.000002 1.471446 -0.000007 -1.133455 112.477308 0.625745 0.000000 0.917755 -0.000002 75.135947 0.000002 -0.629534 0.000001 0.940221 0.000001 1.709737 118.934630 -0.000001 0.113772 1.960660 -88.303882 -152.815907 0.000000 -0.669733 -0.113771 0.388342 -0.045047 1.776280 -4.514631 
0.000000 0.000000 0.000000 -0.000000 1.019410 145.368187 -0.000000 0.000000 1.456275 -0.000000 17.693077 0.000001 -0.000000 0.000002 1.471445 -0.000007 -1.133457 111.378891 0.625745 0.000001 0.917755 -0.000008 75.720590 0.000006 -0.629534 0.000001 0.940221 -0.000001 1.709736 117.773362 -0.000001 0.113772 1.960661 -88.303882 -153.960291 0.000001 -0.669733 -0.113771 0.388340 -0.026851 1.792183 -3.153920 
0.000000 0.000000 0.000000 -0.000000 1.019410 143.619576 -0.000000 0.000000 1.456275 0.000000 16.939226 0.000000 -0.000000 0.000002 1.471446 -0.000008 -1.133454 110.038862 0.625745 0.000000 0.917755 -0.000003 76.433826 0.000009 -0.629533 0.000001 0.940221 -0.000005 1.709739 116.356657 -0.000001 0.113772 1.960661 -88.303875 -155.356396 -0.000001 -0.669734 -0.113771 0.388340 -0.005170 1.812161 -1.493890 
0.000000 0.000000 0.000000 -0.000000 1.019410 141.733761 -0.000000 0.000000 1.456275 -0.000000 16.126229 0.000003 -0.000000 0.000002 1.471445 -0.000007 -1.133456 108.593690 0.625745 0.000000 0.917754 -0.000016 77.203028 0.000014 -0.629533 0.000001 0.940221 -0.000003 1.709738 114.828785 -0.000001 0.113772 1.960660 -88.303882 -156.862043 0.000000 -0.669733 -0.113771 0.388340 0.017551 1.834399 0.296395 
0.000000 0.000000 0.000000 -0.000000 1.019410 139.897601 -0.000000 -0.000000 1.456275 0.000000 15.334632 0.000002 -0.000000 0.000002 1.471446 -0.000006 -1.133455 107.186548 0.625745 0.000000 0.917755 -0.000002 77.951972 0.000003 -0.629534 0.000001 0.940221 -0.000001 1.709739 113.341136 -0.000001 0.113771 1.960661 -88.303882 -158.328033 -0.000002 -0.669733 -0.113771 0.388340 0.038993 1.856724 2.039563 
0.000000 0.000000 0.000000 -0.000000 1.019410 138.099349 -0.000000 0.000000 1.456275 0.000000 14.559380 -0.000002 -0.000000 0.000002 1.471445 -0.000007 -1.133456 105.808489 0.625745 0.000000 0.917755 0.000004 78.685459 0.000011 -0.629534 0.000001 0.940221 -0.000000 1.709735 111.884202 -0.000001 0.113772 1.960660 -88.303882 -159.763780 -0.000003 -0.669733 -0.113771 0.388340 0.059327 1.879210 3.746762 
0.000000 0.000000 0.000000 -0.000000 1.019410 136.289349 -0.000000 0.000000 1.456275 0.000001 13.779067 0.000002 -0.000000 0.000002 1.471445 -0.000007 -1.133455 104.421414 0.625745 0.000000 0.917755 -0.000003 79.423735 0.000017 -0.629534 0.000001 0.940221 0.000000 1.709735 110.417760 -0.000001 0.113772 1.960660 -88.303882 -161.208898 0.000000 -0.669733 -0.113771 0.388341 0.079107 1.902444 5.465120 
0.000000 0.000000 0.000000 -0.000000 1.019410 134.464937 -0.000000 0.000000 1.456275 -0.000000 12.992530 -0.000001 -0.000000 0.000002 1.471445 -0.000005 -1.133454 103.023274 0.625745 0.000000 0.917755 -0.000005 80.167897 0.000007 -0.629533 0.000001 0.940221 -0.000001 1.709736 108.939618 -0.000001 0.113772 1.960660 -88.303882 -162.665531 -0.000003 -0.669733 -0.113771 0.388340 0.098330 1.926453 7.197187 
0.000000 0.000000 0.000000 -0.000000 1.019410 132.637820 -0.000000 0.000000 1.456275 0.000000 12.204833 -0.000001 -0.000000 0.000002 1.471445 -0.000006 -1.133454 101.623079 0.625745 0.000000 0.917755 -0.000007 80.913160 0.000015 -0.629534 0.000001 0.940221 -0.000007 1.709736 107.459305 -0.000001 0.113772 1.960660 -88.303882 -164.124309 -0.000002 -0.669734 -0.113771 0.388340 0.116845 1.951067 8.931827 
